<svg id="check-square-fill" xmlns="http://www.w3.org/2000/svg" width="72.117" height="72.117" viewBox="0 0 72.117 72.117">
  <path id="Trazado_2" data-name="Trazado 2" d="M9.015,0A9.015,9.015,0,0,0,0,9.015V63.1a9.015,9.015,0,0,0,9.015,9.015H63.1A9.015,9.015,0,0,0,72.117,63.1V9.015A9.015,9.015,0,0,0,63.1,0ZM54.222,22.4a3.381,3.381,0,0,0-4.868.1L33.7,42.445l-9.433-9.437a3.381,3.381,0,0,0-4.778,4.778L31.415,49.714a3.381,3.381,0,0,0,4.864-.09L54.272,27.132a3.381,3.381,0,0,0-.044-4.734Z" fill="#3e5c5f" fill-rule="evenodd"/>
</svg>
