<svg xmlns="http://www.w3.org/2000/svg" width="47.518" height="69.117" viewBox="0 0 47.518 69.117">
  <g id="lightning" transform="translate(-5.624 -5.999)">
    <path id="Trazado_1" data-name="Trazado 1" d="M43.427.295A2.16,2.16,0,0,1,44.408,2.8L36.627,28.078H50.981a2.16,2.16,0,0,1,1.572,3.642L18,68.436a2.16,2.16,0,0,1-3.636-2.118L22.14,41.037H7.785a2.16,2.16,0,0,1-1.572-3.642L40.77.679A2.16,2.16,0,0,1,43.427.291ZM12.783,36.717H25.064a2.16,2.16,0,0,1,2.064,2.8L21.22,58.7,45.98,32.4H33.7a2.16,2.16,0,0,1-2.064-2.8l5.909-19.19Z" transform="translate(0 6)" fill="#3e5c5f" fill-rule="evenodd"/>
  </g>
</svg>
