<svg xmlns="http://www.w3.org/2000/svg" width="72.133" height="72.125" viewBox="0 0 72.133 72.125">
  <g id="grafico" transform="translate(-230.22 -153.018)">
    <path id="__TEMP__SVG__" d="M70.018,27.088l-4.932-4.86L45.081,42.3a4.3,4.3,0,0,1-.987,1.621,3.882,3.882,0,0,1-3.452,1.127,3.984,3.984,0,0,1-3.1-1.2,3.187,3.187,0,0,1-.917-1.48L34.02,39.767q-.14.211-3.839,4.262t-4.051,4.4a3.976,3.976,0,0,1-3.522,1.127,3.984,3.984,0,0,1-3.1-1.2,3.187,3.187,0,0,1-.917-1.48l-.353-.353L9.646,55.122a1.129,1.129,0,0,1-.176.14,1.131,1.131,0,0,0-.176.14V63.15H67.9A4.568,4.568,0,0,1,72.4,67.693a4.255,4.255,0,0,1-1.338,3.169,4.4,4.4,0,0,1-3.169,1.3H4.784a4.356,4.356,0,0,1-3.2-1.3,4.331,4.331,0,0,1-1.3-3.2V4.547a4.387,4.387,0,0,1,1.3-3.169A4.259,4.259,0,0,1,4.754.04a4.376,4.376,0,0,1,3.2,1.338A4.321,4.321,0,0,1,9.3,4.547V43.642l4.789-4.789A3.733,3.733,0,0,1,15,37.372a3.984,3.984,0,0,1,3.1-1.2A4.157,4.157,0,0,1,21.553,37.3a4.247,4.247,0,0,1,.987,1.691l.211.211,7.114-7.114a3.733,3.733,0,0,1,.917-1.48,3.984,3.984,0,0,1,3.1-1.2,4.059,4.059,0,0,1,3.452,1.127,4.247,4.247,0,0,1,.987,1.691l2.465,2.465L59.168,16.31,54.379,11.52q-.07-2.535,1.55-2.465h14.23a2.288,2.288,0,0,1,2.254,2.254v14.23q.07,1.691-2.395,1.55Z" transform="translate(229.938 152.977)" fill="#3e5c5f"/>
  </g>
</svg>
